<svg data-v-fde0c5aa="" xmlns="http://www.w3.org/2000/svg" viewBox="0 0 300 300" class="font"><!----><defs data-v-fde0c5aa=""><!----></defs><rect data-v-fde0c5aa="" fill="transparent" x="0" y="0" width="300px" height="300px" class="logo-background-square"></rect><defs data-v-fde0c5aa=""><!----></defs><g data-v-fde0c5aa="" id="f3faa246-c450-466a-b087-c84a6bf4e63c" fill="#000000" transform="matrix(3.53300142288208,0,0,3.53300142288208,37.52689904857395,125.92259512499214)"><path d="M0.70 12.07L0.70 8.65L0.70 7.75L0.70 7.75Q0.81 7.08 1.02 6.65L1.02 6.65L1.02 6.65Q1.50 5.48 2.30 4.93L2.30 4.93L2.30 4.93Q3.11 4.38 3.64 4.38L3.64 4.38L3.64 4.38Q4.04 4.38 4.49 4.64L4.49 4.64L3.99 5.45L3.99 5.45Q3.36 5.22 2.73 5.82L2.73 5.82L2.73 5.82Q2.11 6.43 1.87 7.15L1.87 7.15L1.87 7.15Q1.69 7.79 1.69 9.54L1.69 9.54L1.69 12.07L0.70 12.07ZM5.65 1.50L5.65 1.50L5.65 1.50Q5.97 1.50 6.21 1.74L6.21 1.74L6.21 1.74Q6.45 1.97 6.45 2.30L6.45 2.30L6.45 2.30Q6.45 2.63 6.21 2.86L6.21 2.86L6.21 2.86Q5.97 3.10 5.65 3.10L5.65 3.10L5.65 3.10Q5.32 3.10 5.09 2.86L5.09 2.86L5.09 2.86Q4.85 2.63 4.85 2.30L4.85 2.30L4.85 2.30Q4.85 1.97 5.09 1.74L5.09 1.74L5.09 1.74Q5.32 1.50 5.65 1.50ZM5.17 12.09L5.17 4.59L6.13 4.59L6.13 12.09L5.17 12.09ZM11.89 5.23L11.89 5.23L11.28 5.87L11.28 5.87Q10.50 5.12 9.77 5.12L9.77 5.12L9.77 5.12Q9.30 5.12 8.96 5.43L8.96 5.43L8.96 5.43Q8.63 5.74 8.63 6.16L8.63 6.16L8.63 6.16Q8.63 6.51 8.91 6.84L8.91 6.84L8.91 6.84Q9.18 7.19 10.06 7.64L10.06 7.64L10.06 7.64Q11.14 8.20 11.53 8.72L11.53 8.72L11.53 8.72Q11.90 9.24 11.90 9.90L11.90 9.90L11.90 9.90Q11.90 10.81 11.26 11.45L11.26 11.45L11.26 11.45Q10.61 12.09 9.64 12.09L9.64 12.09L9.64 12.09Q8.99 12.09 8.40 11.82L8.40 11.82L8.40 11.82Q7.81 11.54 7.42 11.04L7.42 11.04L8.03 10.35L8.03 10.35Q8.77 11.18 9.60 11.18L9.60 11.18L9.60 11.18Q10.17 11.18 10.58 10.81L10.58 10.81L10.58 10.81Q10.99 10.44 10.99 9.94L10.99 9.94L10.99 9.94Q10.99 9.52 10.72 9.20L10.72 9.20L10.72 9.20Q10.45 8.88 9.51 8.39L9.51 8.39L9.51 8.39Q8.49 7.88 8.13 7.36L8.13 7.36L8.13 7.36Q7.76 6.86 7.76 6.20L7.76 6.20L7.76 6.20Q7.76 5.35 8.34 4.78L8.34 4.78L8.34 4.78Q8.93 4.22 9.81 4.22L9.81 4.22L9.81 4.22Q10.84 4.22 11.89 5.23ZM13.93 1.50L13.93 1.50L13.93 1.50Q14.26 1.50 14.50 1.74L14.50 1.74L14.50 1.74Q14.73 1.97 14.73 2.30L14.73 2.30L14.73 2.30Q14.73 2.63 14.50 2.86L14.50 2.86L14.50 2.86Q14.26 3.10 13.93 3.10L13.93 3.10L13.93 3.10Q13.60 3.10 13.37 2.86L13.37 2.86L13.37 2.86Q13.14 2.63 13.14 2.30L13.14 2.30L13.14 2.30Q13.14 1.97 13.37 1.74L13.37 1.74L13.37 1.74Q13.60 1.50 13.93 1.50ZM13.45 12.09L13.45 4.59L14.42 4.59L14.42 12.09L13.45 12.09ZM16.40 12.09L16.40 1.69L17.37 1.69L17.37 7.61L20.84 4.59L22.26 4.59L19.12 7.44L22.50 12.09L21.13 12.09L18.18 8.05L17.37 8.72L17.37 12.09L16.40 12.09ZM27.03 4.22L27.03 4.22L27.03 4.22Q28.76 4.22 29.90 5.47L29.90 5.47L29.90 5.47Q30.93 6.62 30.93 8.18L30.93 8.18L30.93 8.18Q30.93 9.75 29.84 10.92L29.84 10.92L29.84 10.92Q28.75 12.09 27.03 12.09L27.03 12.09L27.03 12.09Q25.31 12.09 24.22 10.92L24.22 10.92L24.22 10.92Q23.13 9.75 23.13 8.18L23.13 8.18L23.13 8.18Q23.13 6.62 24.16 5.48L24.16 5.48L24.16 5.48Q25.30 4.22 27.03 4.22ZM27.03 5.16L27.03 5.16L27.03 5.16Q25.83 5.16 24.97 6.05L24.97 6.05L24.97 6.05Q24.11 6.94 24.11 8.20L24.11 8.20L24.11 8.20Q24.11 9.01 24.50 9.72L24.50 9.72L24.50 9.72Q24.90 10.42 25.57 10.80L25.57 10.80L25.57 10.80Q26.24 11.18 27.03 11.18L27.03 11.18L27.03 11.18Q27.84 11.18 28.50 10.80L28.50 10.80L28.50 10.80Q29.17 10.42 29.56 9.72L29.56 9.72L29.56 9.72Q29.95 9.01 29.95 8.20L29.95 8.20L29.95 8.20Q29.95 6.94 29.09 6.05L29.09 6.05L29.09 6.05Q28.23 5.16 27.03 5.16ZM32.70 12.10L32.70 1.70L33.67 1.70L33.67 5.95L33.67 5.95Q34.25 5.17 34.96 4.79L34.96 4.79L34.96 4.79Q35.66 4.41 36.48 4.41L36.48 4.41L36.48 4.41Q37.32 4.41 37.97 4.84L37.97 4.84L37.97 4.84Q38.62 5.26 38.93 5.98L38.93 5.98L38.93 5.98Q39.24 6.70 39.24 8.24L39.24 8.24L39.24 12.10L38.28 12.10L38.28 8.52L38.28 8.52Q38.28 7.23 38.17 6.79L38.17 6.79L38.17 6.79Q37.99 6.04 37.52 5.67L37.52 5.67L37.52 5.67Q37.05 5.30 36.29 5.30L36.29 5.30L36.29 5.30Q35.41 5.30 34.72 5.88L34.72 5.88L34.72 5.88Q34.02 6.45 33.80 7.31L33.80 7.31L33.80 7.31Q33.67 7.85 33.67 9.35L33.67 9.35L33.67 12.10L32.70 12.10ZM44.84 4.22L44.84 4.22L44.84 4.22Q46.57 4.22 47.71 5.47L47.71 5.47L47.71 5.47Q48.76 6.61 48.76 8.18L48.76 8.18L48.76 8.18Q48.77 12.07 48.76 12.13L48.76 12.13L48.76 12.13Q48.10 12.13 47.74 12.13L47.74 12.13L47.74 12.13Q47.74 12.08 47.74 10.42L47.74 10.42L47.74 10.42Q46.94 11.92 44.84 12.09L44.84 12.09L44.84 12.09Q43.11 12.09 42.02 10.92L42.02 10.92L42.02 10.92Q40.93 9.75 40.93 8.18L40.93 8.18L40.93 8.18Q40.93 6.62 41.97 5.48L41.97 5.48L41.97 5.48Q43.11 4.22 44.84 4.22ZM44.84 5.16L44.84 5.16L44.84 5.16Q43.64 5.16 42.78 6.05L42.78 6.05L42.78 6.05Q41.92 6.94 41.92 8.20L41.92 8.20L41.92 8.20Q41.92 9.01 42.36 9.76L42.36 9.76L42.36 9.76Q42.80 10.51 43.85 11.03L43.85 11.03L43.85 11.03Q46.49 11.62 47.61 8.63L47.61 8.63L47.61 8.63Q47.67 7.68 47.40 6.80L47.40 6.80L47.40 6.80Q47.21 6.41 46.87 6.05L46.87 6.05L46.87 6.05Q46.03 5.16 44.84 5.16ZM50.50 8.02L50.50 4.41L51.47 4.41L51.47 7.91L51.47 7.91Q51.47 9.19 51.61 9.67L51.61 9.67L51.61 9.67Q51.82 10.36 52.40 10.76L52.40 10.76L52.40 10.76Q52.98 11.16 53.79 11.16L53.79 11.16L53.79 11.16Q54.60 11.16 55.16 10.77L55.16 10.77L55.16 10.77Q55.72 10.38 55.93 9.75L55.93 9.75L55.93 9.75Q56.08 9.32 56.08 7.91L56.08 7.91L56.08 4.41L57.07 4.41L57.07 8.09L57.07 8.09Q57.07 9.65 56.70 10.43L56.70 10.43L56.70 10.43Q56.33 11.21 55.61 11.65L55.61 11.65L55.61 11.65Q54.89 12.09 53.79 12.09L53.79 12.09L53.79 12.09Q52.69 12.09 51.96 11.65L51.96 11.65L51.96 11.65Q51.23 11.21 50.87 10.41L50.87 10.41L50.87 10.41Q50.50 9.62 50.50 8.02L50.50 8.02ZM62.97 5.23L62.97 5.23L62.35 5.87L62.35 5.87Q61.57 5.12 60.84 5.12L60.84 5.12L60.84 5.12Q60.37 5.12 60.03 5.43L60.03 5.43L60.03 5.43Q59.70 5.74 59.70 6.16L59.70 6.16L59.70 6.16Q59.70 6.51 59.98 6.84L59.98 6.84L59.98 6.84Q60.25 7.19 61.13 7.64L61.13 7.64L61.13 7.64Q62.21 8.20 62.60 8.72L62.60 8.72L62.60 8.72Q62.97 9.24 62.97 9.90L62.97 9.90L62.97 9.90Q62.97 10.81 62.33 11.45L62.33 11.45L62.33 11.45Q61.68 12.09 60.71 12.09L60.71 12.09L60.71 12.09Q60.06 12.09 59.47 11.82L59.47 11.82L59.47 11.82Q58.88 11.54 58.50 11.04L58.50 11.04L59.10 10.35L59.10 10.35Q59.84 11.18 60.67 11.18L60.67 11.18L60.67 11.18Q61.24 11.18 61.65 10.81L61.65 10.81L61.65 10.81Q62.06 10.44 62.06 9.94L62.06 9.94L62.06 9.94Q62.06 9.52 61.79 9.20L61.79 9.20L61.79 9.20Q61.52 8.88 60.58 8.39L60.58 8.39L60.58 8.39Q59.56 7.88 59.20 7.36L59.20 7.36L59.20 7.36Q58.83 6.86 58.83 6.20L58.83 6.20L58.83 6.20Q58.83 5.35 59.41 4.78L59.41 4.78L59.41 4.78Q60.00 4.22 60.88 4.22L60.88 4.22L60.88 4.22Q61.91 4.22 62.97 5.23Z"></path></g><!----><!----></svg>